<svg xmlns="http://www.w3.org/2000/svg" viewBox="0 0 16 16" fill="none" stroke="currentColor" stroke-width="1.2" stroke-linecap="square" stroke-linejoin="miter">
  <rect x="1" y="1" width="4" height="4" />
  <rect x="11" y="1" width="4" height="4" />
  <rect x="1" y="11" width="4" height="4" />
  <rect x="2.5" y="2.5" width="1" height="1" fill="currentColor" stroke="none" />
  <rect x="12.5" y="2.5" width="1" height="1" fill="currentColor" stroke="none" />
  <rect x="2.5" y="12.5" width="1" height="1" fill="currentColor" stroke="none" />
  <rect x="7" y="7" width="2" height="2" fill="currentColor" stroke="none" />
  <rect x="11" y="11" width="1" height="1" fill="currentColor" stroke="none" />
  <rect x="14" y="11" width="1" height="1" fill="currentColor" stroke="none" />
  <rect x="11" y="14" width="1" height="1" fill="currentColor" stroke="none" />
  <rect x="13" y="13" width="2" height="2" fill="currentColor" stroke="none" />
  <rect x="7" y="1" width="1" height="1" fill="currentColor" stroke="none" />
  <rect x="9" y="1" width="1" height="1" fill="currentColor" stroke="none" />
  <rect x="7" y="3" width="2" height="1" fill="currentColor" stroke="none" />
  <rect x="1" y="7" width="1" height="2" fill="currentColor" stroke="none" />
  <rect x="3" y="8" width="2" height="1" fill="currentColor" stroke="none" />
</svg>
