<svg width="16" height="16" viewBox="0 0 16 16" xmlns="http://www.w3.org/2000/svg" fill="currentColor"><path fill-rule="evenodd" clip-rule="evenodd" d="M8 1C4.134 1 1 4.134 1 8s3.134 7 7 7 7-3.134 7-7-3.134-7-7-7ZM2.071 8.5C2.296 11.193 4.298 13.4 6.894 13.936 6.333 12.701 5.994 10.756 5.95 8.5H2.071Zm0-1h3.879c.044-2.256.383-4.201.944-5.436C4.298 2.6 2.296 4.807 2.071 7.5ZM8 2c-.152 0-.454.171-.779.822-.464.928-.82 2.609-.87 4.678h3.298c-.05-2.069-.406-3.75-.87-4.678C8.454 2.172 8.152 2 8 2ZM6.351 8.5c.05 2.069.406 3.75.87 4.678.325.65.627.822.779.822s.454-.171.779-.822c.464-.928.82-2.609.87-4.678H6.351Zm3.755 5.436c.561-1.235.9-3.18.944-5.436h3.879c-.225 2.693-2.227 4.9-4.823 5.436Zm4.823-6.436H11.05c-.044-2.256-.383-4.201-.944-5.436 2.596.536 4.598 2.743 4.823 5.436Z"/></svg>
