<svg width="16" height="16" viewBox="0 0 16 16" xmlns="http://www.w3.org/2000/svg" fill="currentColor">
  <path d="M8 1.25C7.87 1.25 7.75 1.31 7.67 1.42L5.17 4.75H6.62L3.55 8.85C3.43 9.01 3.41 9.23 3.5 9.41C3.59 9.59 3.77 9.7 3.97 9.7H6.16L4.56 11.84C4.45 11.99 4.43 12.2 4.52 12.37C4.61 12.54 4.79 12.65 4.98 12.65H7.25V14.5C7.25 14.78 7.47 15 7.75 15H8.25C8.53 15 8.75 14.78 8.75 14.5V12.65H11.02C11.21 12.65 11.39 12.54 11.48 12.37C11.57 12.2 11.55 11.99 11.44 11.84L9.84 9.7H12.03C12.23 9.7 12.41 9.59 12.5 9.41C12.59 9.23 12.57 9.01 12.45 8.85L9.38 4.75H10.83L8.33 1.42C8.25 1.31 8.13 1.25 8 1.25Z"/>
</svg>