<svg width="16" height="16" viewBox="0 0 16 16" fill="none" xmlns="http://www.w3.org/2000/svg">
  <g stroke="black" stroke-width="1.8" stroke-linecap="butt">
    <path d="M8.00 2.50 A5.5 5.5 0 0 0 6.58 2.69" opacity="1.00"/>
    <path d="M6.58 2.69 A5.5 5.5 0 0 0 5.25 3.24" opacity="0.95"/>
    <path d="M5.25 3.24 A5.5 5.5 0 0 0 4.11 4.11" opacity="0.90"/>
    <path d="M4.11 4.11 A5.5 5.5 0 0 0 3.24 5.25" opacity="0.85"/>
    <path d="M3.24 5.25 A5.5 5.5 0 0 0 2.69 6.58" opacity="0.80"/>
    <path d="M2.69 6.58 A5.5 5.5 0 0 0 2.50 8.00" opacity="0.74"/>
    <path d="M2.50 8.00 A5.5 5.5 0 0 0 2.69 9.42" opacity="0.68"/>
    <path d="M2.69 9.42 A5.5 5.5 0 0 0 3.24 10.75" opacity="0.62"/>
    <path d="M3.24 10.75 A5.5 5.5 0 0 0 4.11 11.89" opacity="0.55"/>
    <path d="M4.11 11.89 A5.5 5.5 0 0 0 5.25 12.76" opacity="0.48"/>
    <path d="M5.25 12.76 A5.5 5.5 0 0 0 6.58 13.31" opacity="0.42"/>
    <path d="M6.58 13.31 A5.5 5.5 0 0 0 8.00 13.50" opacity="0.36"/>
    <path d="M8.00 13.50 A5.5 5.5 0 0 0 9.42 13.31" opacity="0.30"/>
    <path d="M9.42 13.31 A5.5 5.5 0 0 0 10.75 12.76" opacity="0.25"/>
    <path d="M10.75 12.76 A5.5 5.5 0 0 0 11.89 11.89" opacity="0.20"/>
    <path d="M11.89 11.89 A5.5 5.5 0 0 0 12.76 10.75" opacity="0.16"/>
    <path d="M12.76 10.75 A5.5 5.5 0 0 0 13.31 9.42" opacity="0.13"/>
    <path d="M13.31 9.42 A5.5 5.5 0 0 0 13.50 8.00" opacity="0.10"/>
    <path d="M13.50 8.00 A5.5 5.5 0 0 0 13.31 6.58" opacity="0.08"/>
    <path d="M13.31 6.58 A5.5 5.5 0 0 0 12.76 5.25" opacity="0.06"/>
    <path d="M12.76 5.25 A5.5 5.5 0 0 0 11.89 4.11" opacity="0.04"/>
    <path d="M11.89 4.11 A5.5 5.5 0 0 0 10.75 3.24" opacity="0.03"/>
  </g>
  <circle cx="8" cy="2.5" r="1.15" fill="black" opacity="1"/>
</svg>