<svg width="16" height="16" viewBox="0 0 16 16" xmlns="http://www.w3.org/2000/svg" fill="currentColor"><path fill-rule="evenodd" d="M1 3.5A1.5 1.5 0 0 1 2.5 2h3.172a1.5 1.5 0 0 1 1.06.44l.829.828a.5.5 0 0 0 .353.147H13.5A1.5 1.5 0 0 1 15 4.915V12.5a1.5 1.5 0 0 1-1.5 1.5h-11A1.5 1.5 0 0 1 1 12.5zm1.5-.5a.5.5 0 0 0-.5.5v9a.5.5 0 0 0 .5.5h11a.5.5 0 0 0 .5-.5V4.915a.5.5 0 0 0-.5-.5H7.914a1.5 1.5 0 0 1-1.06-.44l-.829-.828A.5.5 0 0 0 5.672 3z"/><path d="M8 6.5a.5.5 0 0 1 .5.5v1.5H10a.5.5 0 0 1 0 1H8.5V11a.5.5 0 0 1-1 0V9.5H6a.5.5 0 0 1 0-1h1.5V7a.5.5 0 0 1 .5-.5"/></svg>