<svg width="16" height="16" viewBox="0 0 16 16" xmlns="http://www.w3.org/2000/svg" fill="currentColor"><path d="M8.14576 13.854L3.14576 8.854C2.95076 8.659 2.95076 8.342 3.14576 8.147C3.34076 7.952 3.65776 7.952 3.85276 8.147L7.99876 12.293V2.5C7.99876 2.224 8.22276 2 8.49876 2C8.77476 2 8.99876 2.224 8.99876 2.5V12.293L13.1448 8.147C13.3398 7.952 13.6568 7.952 13.8518 8.147C13.9498 8.245 13.9978 8.373 13.9978 8.501C13.9978 8.629 13.9488 8.757 13.8518 8.855L8.85176 13.855C8.65676 14.05 8.33976 14.05 8.14476 13.855L8.14576 13.854Z"/></svg>